<svg xmlns="http://www.w3.org/2000/svg" version="1.1" viewBox="-5.0 -10.0 110.0 135.0">
 <path d="m12.738 45.703h60.512c0.61328 0 1.1133 0.49609 1.1133 1.1094v46.449c-0.007812 2.2656-1.8398 4.1016-4.1055 4.1055h-54.52c-2.2656-0.003907-4.0977-1.8398-4.1055-4.1055v-46.449c0-0.60938 0.49219-1.1055 1.1055-1.1094zm29.637 38.574c0.36719 0.25 0.84766 0.25391 1.2188 0.015625 3.0117-1.875 5.8281-4.0391 8.4062-6.4727 1.8086-1.6133 3.2148-3.625 4.1055-5.8789 0.023437-0.058594 0.042969-0.12109 0.058593-0.17969 0.8125-3.4141-0.78125-6.9414-3.8789-8.5898-3.0938-1.6484-6.9102-1-9.2891 1.5781-2.3789-2.5742-6.1953-3.2227-9.2891-1.5781-3.0938 1.6484-4.6875 5.1758-3.8789 8.5898 0.007813 0.027343 0.015625 0.050781 0.023437 0.078125h-0.003906c0.88281 2.2969 2.3008 4.3477 4.1367 5.9805 2.5742 2.4258 5.3867 4.5898 8.3906 6.457zm-6.8438-8.0352h0.003906c2.293 2.1641 4.7891 4.1055 7.4531 5.7969 2.6641-1.6914 5.1602-3.6328 7.457-5.7969 1.5508-1.3672 2.7656-3.0742 3.5508-4.9883 0.63672-2.6367-0.75-5.3438-3.2617-6.3672-2.5117-1.0273-5.3945-0.066407-6.7891 2.2617-0.19922 0.33984-0.55859 0.54687-0.94922 0.55078-0.39062 0-0.75781-0.20312-0.95703-0.53906-1.3906-2.3281-4.2734-3.2969-6.7852-2.2734-2.5117 1.0195-3.9023 3.7227-3.2734 6.3633 0.78516 1.9141 2.0039 3.6211 3.5547 4.9922zm7.4531-25.051h0.003906c1.3125 0 2.625 0.125 3.9102 0.375v-3.6445h-7.8125v3.6406c1.2891-0.25 2.5977-0.37891 3.9102-0.37891zm6.1289 0.94141 0.007813-0.003906c5.5352 1.7539 10.059 5.7852 12.434 11.082 2.375 5.3008 2.375 11.359 0 16.656-2.375 5.3008-6.8984 9.332-12.434 11.082v4.1992h21.133c1.0469 0 1.8945-0.84766 1.8945-1.8945v-45.332h-23.023v4.2031zm-2.207 39.375c-2.582 0.5-5.2383 0.5-7.8203 0v3.6406h7.8203zm-10.039-0.55859c-5.5391-1.7539-10.062-5.7852-12.438-11.082-2.375-5.3008-2.375-11.359 0-16.656 2.375-5.3008 6.8984-9.332 12.438-11.082v-4.207h-23.02v45.34c0 1.0469 0.84766 1.8945 1.8945 1.8945h21.125l0.003906-4.207zm18.949-32.227-0.003906-0.003906c-3.9844-3.9844-9.5977-5.8906-15.188-5.1562-5.5859 0.73828-10.516 4.0273-13.332 8.9102-2.8203 4.8828-3.207 10.797-1.0508 16.004 2.1562 5.207 6.6133 9.1133 12.059 10.574 5.4453 1.457 11.258 0.30078 15.727-3.1289 4.4727-3.4336 7.0938-8.7461 7.0938-14.383 0.007812-4.8125-1.9023-9.4258-5.3047-12.824zm-1.8555-34.652c-1.3242-0.40234-2.6094-0.9375-3.8281-1.5938-0.92969-0.46875-1.7305-1.1562-2.3398-2-0.019531-0.027343-0.035157-0.058593-0.050781-0.085937v-0.003906c-0.71094-1.332-0.51953-2.9648 0.48828-4.0938 1.0039-1.1289 2.6055-1.5117 4.0078-0.95703 0.94141-1.1875 2.5273-1.6602 3.9648-1.1797 1.4336 0.48047 2.418 1.8086 2.457 3.3203v0.078126c-0.097656 1.0391-0.44922 2.0391-1.0195 2.9141-0.73047 1.1797-1.5742 2.2812-2.5234 3.293-0.29297 0.32031-0.74609 0.44141-1.1602 0.30859zm-2.7422-3.5195c0.875 0.47266 1.7891 0.87109 2.7344 1.1836 0.66406-0.74219 1.2539-1.5469 1.7734-2.3945 0.375-0.55469 0.61719-1.1875 0.71484-1.8477-0.039062-0.67578-0.55859-1.2227-1.2344-1.2969-0.67188-0.074218-1.2969 0.34766-1.4844 1-0.10547 0.375-0.40234 0.66797-0.77734 0.76953-0.37891 0.10156-0.78125-0.003906-1.0586-0.27734-0.48828-0.46875-1.2422-0.51953-1.7891-0.11719-0.54297 0.39844-0.71875 1.1328-0.41797 1.7383 0.41406 0.52344 0.9375 0.94531 1.5352 1.2422zm-9.0664 10.023c-2.5781-0.089844-5.1445-0.42969-7.6562-1.0273-1.8008-0.37109-3.4805-1.168-4.9062-2.3242-0.035156-0.03125-0.0625-0.0625-0.09375-0.09375-1.7773-1.918-2.0859-4.7773-0.75-7.0273 1.332-2.2539 3.9883-3.3555 6.5234-2.7148 0.71484-2.5273 3.0117-4.2773 5.6367-4.2969 2.6289-0.019532 4.9492 1.6992 5.6992 4.2148 0.007812 0.027343 0.015625 0.054687 0.019531 0.082031h0.003906c0.28906 1.8086 0.14062 3.6641-0.4375 5.4062-0.74609 2.4883-1.7383 4.8945-2.9609 7.1836-0.20703 0.39844-0.63281 0.63281-1.0781 0.59766zm-7.1094-3.168c2.1445 0.50781 4.3359 0.81641 6.543 0.91797 1.0117-1.957 1.8398-4.0078 2.4727-6.1211 0.46875-1.3867 0.60938-2.8633 0.41016-4.3164-0.53125-1.7344-2.2422-2.8242-4.0352-2.5742-1.793 0.25391-3.1406 1.7734-3.1719 3.5859 0.007812 0.39453-0.19922 0.76172-0.53906 0.96484s-0.76172 0.21094-1.1055 0.019531c-1.582-0.89844-3.5859-0.50781-4.7109 0.92188-1.125 1.4297-1.043 3.4648 0.19922 4.7969 1.1562 0.89453 2.5039 1.5117 3.9375 1.8008zm19.578 9.5391c0.78906-1.5391 1.4375-3.1445 1.9297-4.8008 0.36719-1.0898 0.48047-2.2461 0.33203-3.3867-0.41016-1.3008-1.7031-2.1133-3.0547-1.918-1.3477 0.19922-2.3555 1.3477-2.375 2.7109-0.003906 0.39062-0.21484 0.75-0.55078 0.94531-0.33984 0.19531-0.75391 0.19922-1.0938 0.007812-1.1914-0.66406-2.6914-0.36719-3.5391 0.69922-0.84766 1.0703-0.79297 2.5977 0.12891 3.6055 0.91016 0.69922 1.9688 1.1836 3.0977 1.4062 1.6797 0.40234 3.3984 0.64453 5.125 0.73047zm4.0625-4.2109c0.47656-1.4453 0.60156-2.9844 0.35938-4.4844-0.007813-0.042969-0.019531-0.082031-0.035157-0.12109-0.64062-2.082-2.5547-3.5078-4.7305-3.5273-2.1758-0.019531-4.1172 1.375-4.793 3.4453-2.1367-0.44922-4.3164 0.53906-5.3867 2.4453-1.0703 1.9023-0.77734 4.2812 0.72266 5.8711 0.019532 0.019531 0.039063 0.042969 0.0625 0.058594 1.1797 0.96094 2.5742 1.625 4.0664 1.9375 2.0586 0.48828 4.1641 0.76953 6.2812 0.83984 0.43359 0.023437 0.83984-0.21094 1.0352-0.59766 1-1.8672 1.8125-3.832 2.4219-5.8633zm5.8516 11.523v0.003907c-1.3242-0.40625-2.6055-0.9375-3.8281-1.5977-0.92969-0.46875-1.7305-1.1562-2.3398-2.0039-0.019532-0.027344-0.035157-0.058594-0.050782-0.085937v-0.003907c-0.71094-1.332-0.51562-2.9648 0.48828-4.0938 1.0039-1.1289 2.6055-1.5117 4.0117-0.95703 0.94141-1.1875 2.5234-1.6562 3.9609-1.1797 1.4336 0.48047 2.418 1.8086 2.457 3.3203v0.078125c-0.097656 1.0391-0.44922 2.0391-1.0156 2.9141-0.73047 1.1797-1.5742 2.2812-2.5234 3.293-0.28906 0.32422-0.74219 0.44922-1.1562 0.31641zm-2.7461-3.5195c0.875 0.47266 1.793 0.87109 2.7383 1.1836 0.66016-0.74609 1.2539-1.5469 1.7734-2.3984 0.37109-0.55469 0.61719-1.1836 0.71484-1.8438-0.039063-0.67578-0.5625-1.2227-1.2344-1.2969-0.67188-0.074218-1.3008 0.34766-1.4844 1-0.10547 0.375-0.40234 0.66797-0.78125 0.76953-0.375 0.10156-0.77734-0.003906-1.0586-0.27734-0.48438-0.46875-1.2383-0.51953-1.7852-0.11719-0.54297 0.39844-0.72266 1.1328-0.41797 1.7383 0.41406 0.52344 0.9375 0.94531 1.5352 1.2422zm-30.188 3.2969c0.19922 0.38672 0.60156 0.62109 1.0352 0.59766 2.1172-0.070312 4.2227-0.35156 6.2852-0.83984 1.4883-0.30859 2.8867-0.97266 4.0664-1.9336 0.023438-0.019531 0.042969-0.039063 0.0625-0.0625 1.4961-1.5898 1.7891-3.9648 0.71875-5.8711-1.0664-1.9023-3.2461-2.8945-5.3828-2.4453-0.67578-2.0703-2.6172-3.4609-4.793-3.4453-2.1797 0.019532-4.0938 1.4492-4.7344 3.5273-0.011719 0.042969-0.023437 0.082031-0.03125 0.125-0.24219 1.5-0.12109 3.0391 0.35547 4.4844 0.60938 2.0273 1.4219 3.9922 2.4219 5.8633zm-0.28125-6.4531h-0.003906c-0.36719-1.0859-0.48047-2.2461-0.33203-3.3867 0.41406-1.2969 1.707-2.1094 3.0547-1.9102 1.3477 0.19531 2.3555 1.3398 2.3789 2.7031 0.003906 0.39062 0.21484 0.75 0.55078 0.94531 0.33594 0.19531 0.75 0.19922 1.0938 0.007812 1.1914-0.67188 2.6953-0.375 3.543 0.69531 0.85156 1.0703 0.79297 2.6016-0.13281 3.6094-0.91016 0.69922-1.9688 1.1836-3.0938 1.4062-1.6836 0.40234-3.3984 0.64844-5.1289 0.73047-0.78906-1.5352-1.4336-3.1445-1.9297-4.8008zm-8.5352 6.5156h-0.003906c0.44922 0.035156 0.875-0.19922 1.0781-0.59766 1.5352-2.875 2.7812-5.8945 3.7188-9.0195 0.71484-2.1523 0.90234-4.4492 0.54688-6.6914-0.003906-0.027343-0.011719-0.054687-0.019531-0.082031-0.92969-3.1055-3.8242-5.1992-7.0664-5.1094-3.2383 0.089844-6.0156 2.3398-6.7695 5.4922-3.0977-0.91797-6.4297 0.35156-8.1289 3.0977-1.7031 2.7461-1.3516 6.293 0.85156 8.6562 0.027343 0.035156 0.058593 0.066406 0.089843 0.09375 1.7656 1.4297 3.8516 2.418 6.0742 2.875 3.1602 0.74609 6.3828 1.1758 9.6289 1.2852zm-9.0781-3.4258h-0.003906c-1.8594-0.375-3.6094-1.1797-5.1055-2.3516-1.6602-1.7812-1.7734-4.5117-0.26562-6.4258 1.5078-1.918 4.1836-2.4492 6.3125-1.2578 0.34375 0.19531 0.76562 0.1875 1.1055-0.015625s0.54297-0.57422 0.53906-0.96875c0.035157-2.4414 1.8438-4.4883 4.2617-4.8281 2.4141-0.33594 4.7188 1.1406 5.4219 3.4766 0.26172 1.8789 0.085938 3.7969-0.51953 5.5977-0.82812 2.7461-1.9102 5.4102-3.2422 7.9492-2.8672-0.12109-5.7188-0.51562-8.5117-1.1758zm69.625-23.75c-0.09375-0.19922-0.19531-0.39844-0.30469-0.58594v-0.003907c-1.0156-1.7578-2.7344-3-4.7227-3.4062-1.9883-0.40625-4.0586 0.058594-5.6797 1.2773l-5.4453-9.4258c-0.03125-0.070313-0.070313-0.13281-0.11719-0.19531-1.1406-1.8477-3.5234-2.4883-5.4375-1.457-0.070312 0.027344-0.13281 0.0625-0.19531 0.10547l-6.1055 3.5234-0.0625 0.03125c-0.25391 0.14844-0.4375 0.39062-0.51562 0.67188-0.074219 0.28516-0.035156 0.58594 0.11328 0.84375l30.262 52.41c0.14453 0.25391 0.38672 0.4375 0.67188 0.51562 0.28516 0.074219 0.58594 0.035157 0.83984-0.11328l6.25-3.6055c0.94531-0.54687 1.6328-1.4453 1.9141-2.4961s0.13281-2.1758-0.41406-3.1172l-5.4961-9.5195c1.8711-0.79688 3.3047-2.3555 3.9492-4.2812 0.64062-1.9258 0.42578-4.0352-0.58984-5.793-0.10547-0.19141-0.23047-0.375-0.35547-0.55859v0.003906c2.6914-2.8789 3.1836-7.1758 1.2148-10.586-1.9688-3.4141-5.9375-5.1367-9.7734-4.2461zm7.0078 13.238c-2.5195-1.8828-5.9805-1.8789-8.5 0.011719l-2.1719-3.7617c2.8984-1.2344 4.6328-4.2305 4.2656-7.3594 2.8594-0.60938 5.7852 0.69141 7.2461 3.2227 1.4609 2.5312 1.1211 5.7148-0.83984 7.8828zm-2.5703 10.281-4.8125-8.3359c1.6016-1.3438 3.8828-1.5234 5.6719-0.44141 1.7891 1.0859 2.6875 3.1836 2.2383 5.2266-0.35547 1.6367-1.5234 2.9766-3.0977 3.5469zm-9.2188-15.969-4.8086-8.332h-0.003907c0.53516-0.44531 1.1562-0.77344 1.8281-0.96094 2.1445-0.60156 4.4297 0.32812 5.543 2.2578 0.72266 1.25 0.85156 2.7578 0.35938 4.1133s-1.5625 2.4258-2.918 2.918zm1.6914 7.3516-6.9297 4 13.172 22.816 5.2891-3.0508c0.89844-0.53125 1.207-1.6836 0.6875-2.5898zm-8.0391 2.082-0.58594-1.0156 6.9297-4 0.58984 1.0195-6.9297 4zm-1.6953-2.9375 6.9297-4-12.227-21.18c-0.52734-0.89844-1.6797-1.207-2.5859-0.69141l-5.2891 3.0508z" fill-rule="evenodd"/>
<text x="0.0" y="117.5" font-size="5.0" font-weight="bold" font-family="Arbeit Regular, Helvetica, Arial-Unicode, Arial, Sans-serif" fill="#000000">Created by Siti Solekah</text><text x="0.0" y="122.5" font-size="5.0" font-weight="bold" font-family="Arbeit Regular, Helvetica, Arial-Unicode, Arial, Sans-serif" fill="#000000">from Noun Project</text></svg>